# xmcd
#
# Track frame offsets: 
#        183
#        20470
#        40308
#        57295
#        70195
#        85458
#        102445
#        123595
#        142758
#        160233
#        176058
#        191845
#        210370
#        227133
#        248545
#        267483
#
# Disc length: 3790 seconds
#
# Revision: 4
# Processed by: cddbd v1.5.2PL0 Copyright (c) Steve Scherf et al.
# Submitted via: ExactAudioCopy v0.99pb5
#
DISCID=e10ecc10
DTITLE=Bonnie Tyler - The Greatest Hits (Telstar, UK)
DYEAR=1986
DGENRE=Pop
TTITLE0=Total Eclipse Of The Heart
TTITLE1=Holding Out For A Hero
TTITLE2=(The World Is Full Of) Married Men
TTITLE3=Rockin' Good Way
TTITLE4=Here She Comes
TTITLE5=Band Of Gold
TTITLE6=Faster Than The Speed Of Night
TTITLE7=Lovers Again
TTITLE8=Lost In France
TTITLE9=It's A Heartache
TTITLE10=Getting So Excited
TTITLE11=Have You Ever Seen The Rain?
TTITLE12=I Believe In Your Sweet Love
TTITLE13=If I Sing You A Love Song
TTITLE14=More Than A Lover
TTITLE15=Straight From The Heart
EXTD=
EXTT0=
EXTT1=
EXTT2=
EXTT3=
EXTT4=
EXTT5=
EXTT6=
EXTT7=
EXTT8=
EXTT9=
EXTT10=
EXTT11=
EXTT12=
EXTT13=
EXTT14=
EXTT15=
PLAYORDER=
